<svg xmlns="http://www.w3.org/2000/svg" width="24" height="24" fill="none" viewBox="0 0 24 24"><path fill="currentColor" fill-opacity="0.85" d="M15.378 9.292a.95.95 0 0 1 .258-.646.73.73 0 0 1 .616-.252.85.85 0 0 1 .645.27.85.85 0 0 1 .281.633v7.398q0 1.16-.41 2.123a5.004 5.004 0 0 1-2.774 2.739 5.2 5.2 0 0 1-1.988.38 5.2 5.2 0 0 1-3.654-1.46 5.1 5.1 0 0 1-1.114-1.654 5.5 5.5 0 0 1-.405-2.128L6.822 6.002q0-1.197.504-2.077A3.6 3.6 0 0 1 8.68 2.547a3.7 3.7 0 0 1 1.882-.486q1.068 0 1.912.492.845.48 1.337 1.372.493.88.493 2.077V16.53q0 .68-.305 1.22a2.24 2.24 0 0 1-.821.845 2.17 2.17 0 0 1-1.179.31 2.1 2.1 0 0 1-1.126-.304 2.46 2.46 0 0 1-.85-.85 2.36 2.36 0 0 1-.323-1.226V9.632q0-.375.246-.634a.8.8 0 0 1 .61-.258.8.8 0 0 1 .616.252q.24.253.246.634l-.011 6.858q.006.322.193.474.188.141.399.141a.7.7 0 0 0 .405-.146q.193-.147.187-.47L12.586 6.02q0-.598-.24-1.108a2.04 2.04 0 0 0-.68-.833 1.78 1.78 0 0 0-1.056-.317 1.7 1.7 0 0 0-1.044.317 2.1 2.1 0 0 0-.692.833q-.24.51-.24 1.108l-.006 10.605q.006 1.073.463 1.86.452.78 1.22 1.207a3.44 3.44 0 0 0 1.689.411 3.33 3.33 0 0 0 1.695-.416 3.2 3.2 0 0 0 1.22-1.209q.463-.78.457-1.853z"></path></svg> 