<svg t="1715238939111" class="icon" viewBox="0 0 1086 1024" version="1.1" xmlns="http://www.w3.org/2000/svg" p-id="5344" width="200" height="200"><path d="M25.047 408.416L987.559 7.348a29.903 29.903 0 0 1 40.574 34.887l-239.798 959.062a29.903 29.903 0 0 1-48.177 15.718L531.988 843.54a29.903 29.903 0 0 0-40.317 1.917L384.903 952.162a29.903 29.903 0 0 1-51.052-21.086V705.527c0-7.986 3.195-15.59 8.753-21.213l434.23-434.23-512.629 384.52a29.903 29.903 0 0 1-37.123-0.958L17.443 459.02a29.903 29.903 0 0 1 7.668-50.605z" p-id="5345" fill="#e6e6e6"></path></svg> 