<?xml version="1.0" standalone="no"?><!DOCTYPE svg PUBLIC "-//W3C//DTD SVG 1.1//EN" "http://www.w3.org/Graphics/SVG/1.1/DTD/svg11.dtd"><svg t="1715775915918" class="icon" viewBox="0 0 1024 1024" version="1.1" xmlns="http://www.w3.org/2000/svg" p-id="5383" xmlns:xlink="http://www.w3.org/1999/xlink" width="200" height="200"><path d="M524.212382 865.757428c13.209787-15.215273 27.368277-29.577914 41.430695-44.012608 6.96516-7.205338 13.906303-14.338623 20.679321-21.616015 6.268644-6.797036 11.912826-14.410677 19.39437-19.958787 8.406228-6.232618 15.287326-14.566792 22.492664-22.180434s14.146481-14.951077 21.207713-22.444629q20.679321-21.928246 41.178508-44.036626 20.967535-22.672798 41.574802-45.633809c13.930321-15.611566 28.53314-30.49059 42.883772-45.63381q10.579838-11.192292 21.183695-22.360566c6.628911-6.96516 13.077689-14.758935 20.234992-21.075615 3.542625-3.110304 7.817792-5.608155 11.588586-8.406228 4.659452-3.494589 8.502299-8.214086 12.52528-12.429209q10.615865-11.144257 21.135659-22.384584 23.513421-25.110604 46.702601-50.509422c15.107193-16.476207 31.655453-33.120539 40.28985-54.172135l-3.098295 5.187843c3.398518-3.722758 6.256635-6.96516 8.238103-11.64863 1.705263-4.022981 3.350482-8.069979 4.911639-12.153004q4.287176-11.21631 7.757748-22.720834a316.446451 316.446451 0 0 0 10.315643-46.378361c4.695479-32.832325 4.551372-66.048935-2.137584-98.593046a232.348144 232.348144 0 0 0-5.836324-22.636771 87.00446 87.00446 0 0 0-4.539363-12.237066c-0.684507-1.41705-1.501112-2.738029-2.329726-4.071017-0.420311-0.684507-0.900667-1.369014-1.284952-2.077539-0.876649-1.609192-0.096071 0.072053-0.528392-1.20089a222.80107 222.80107 0 0 0-18.385622-41.15449c-14.506748-24.966497-33.937144-46.834699-55.024767-66.457238-10.399705-9.607118-21.243739-18.769906-32.255898-27.692517-11.420461-9.25886-22.900967-18.241515-36.026691-25.014533C794.748819 7.793774 768.449334 1.705263 741.801591 0.840623c-42.355381-1.284952-84.530628 10.135509-122.959099 27.284214A225.575126 225.575126 0 0 0 598.127144 38.428471a348.726367 348.726367 0 0 0-40.205787 27.620464c-6.616902 5.163826-13.353894 10.423723-19.442405 16.212011-5.584137 5.307933-10.303634 11.348408-16.54826 15.959824-6.736991 4.983692-12.09296 11.876799-17.761159 18.013346-9.186806 9.991402 2.401779 25.518907 14.554783 18.865978a25.578951 25.578951 0 0 0 3.182358-2.053522c4.803559-3.602669 7.505561-9.102744 4.911639-14.999112a12.008897 12.008897 0 0 0-14.170499-6.953152 18.109417 18.109417 0 0 0-8.106006 4.803559h16.980581c-14.410677-14.410677-28.821353-28.665238-44.32484-41.754935-16.488216-13.894294-34.729731-24.462124-52.647005-36.290888-33.348708-21.952264-70.492227-35.762496-110.601944-37.623875-29.746038-1.381023-59.960424 3.794812-87.941154 13.846259-16.296074 5.860342-32.424023 13.089698-47.074877 22.444628-0.744552 0.480356-1.489103 0.972721-2.221646 1.465086a284.851042 284.851042 0 0 0-23.405341 17.85723 257.422721 257.422721 0 0 0-42.631585 45.501712c-5.247888 7.145294-11.360417 13.930321-16.704376 21.531952a258.85178 258.85178 0 0 0-14.80697 23.681546 268.795147 268.795147 0 0 0-21.772131 51.50616 278.606416 278.606416 0 0 0-9.79926 111.994976c4.35923 38.512533 15.371388 77.745601 35.318166 111.190379 16.812456 28.196891 41.887034 49.236479 64.379699 72.725882l36.735216 38.284364q19.646556 20.47517 39.269094 40.986366l60.789038 63.839298 89.382222 93.87355 83.918174 88.133297c14.48273 15.203264 28.653229 30.790813 43.472208 45.633809 0.32424 0.32424 0.612454 0.672498 0.936694 0.98473 4.071016 3.80682 8.838548 3.602669 13.906303 3.602669 15.455451 0 15.479469-24.017794 0-24.017795h-5.367977l8.49029 3.518607-32.712236-34.357455-76.856942-80.699789-89.009947-93.477256-69.231292-72.701864q-13.738178-14.410677-27.500375-28.821353l-41.658864-43.484217c-12.008897-12.52528-23.789625-25.3748-36.254861-37.431733-13.437956-13.005636-26.923948-25.723058-37.155528-41.178509a205.448214 205.448214 0 0 1-23.201189-48.035589c-11.780728-34.825802-17.124687-70.56428-14.915051-107.239452a245.161637 245.161637 0 0 1 27.920686-99.505722 257.710935 257.710935 0 0 1 13.546036-22.660789c5.235879-7.769757 10.808008-14.15849 16.536252-21.616015s10.940105-14.69889 17.280803-21.495926a289.186254 289.186254 0 0 1 20.931508-20.066868 196.381496 196.381496 0 0 1 39.173023-27.188143q6.004449-3.074278 12.008897-5.812306c1.20089-0.516383 2.317717-0.98473 3.458562-1.513121 1.657228-0.768569-2.762046 1.116827-0.072053 0l1.645219-0.672499q4.095034-1.669237 8.250112-3.182357a236.995587 236.995587 0 0 1 37.599857-10.399705c3.494589-0.660489 7.001187-1.20089 10.531803-1.717273-1.95745 0.264196 0.096071 0 0.408303 0l3.038251-0.348258q3.086287-0.336249 6.172573-0.576427a203.514781 203.514781 0 0 1 23.825652-0.468347 176.026416 176.026416 0 0 1 49.512683 9.066718c18.6258 6.124538 35.270131 15.611566 51.638258 26.275467 16.728394 10.916088 33.696966 20.727357 48.924248 33.769019 14.602819 12.501262 28.244926 26.047298 41.826989 39.629361a12.189031 12.189031 0 0 0 16.980581 0q1.549148-1.489103-2.485842 1.41705l-9.282878-21.916238a25.578951 25.578951 0 0 1-3.182358 2.053522l14.554784 18.865977c4.287176-4.671461 8.406228-9.751225 12.9576-14.134472 4.407265-4.203114 9.835287-7.877837 14.254561-12.405191a249.556893 249.556893 0 0 1 27.992739-24.798373 290.495224 290.495224 0 0 1 36.69919-24.257972c7.121276-3.854856 14.410677-7.205338 21.880211-10.495776 0.660489-0.288214 3.110304-1.296961-0.132098 0l2.125575-0.888659q2.221646-0.912676 4.455301-1.789325 4.803559-1.885397 9.607118-3.602669 10.808008-3.878874 21.940255-6.965161c7.817792-2.17361 15.731655-4.022981 23.717572-5.512084q3.254411-0.612454 6.53284-1.128836l3.314456-0.504374c0.264196 0 3.950927-0.516383 1.272943-0.180133 4.539363-0.564418 9.090735-1.032765 13.642107-1.344997a203.778977 203.778977 0 0 1 28.172873 0 133.298759 133.298759 0 0 1 25.494889 3.974945 139.615439 139.615439 0 0 1 52.695041 24.894444 553.442038 553.442038 0 0 1 49.620763 42.715648c15.527504 15.119202 28.929433 30.502599 40.18177 48.503936a199.275641 199.275641 0 0 1 14.806971 28.377024c2.029504 4.947666 3.602669 10.039438 5.404003 15.047148a48.035589 48.035589 0 0 0 4.239141 8.033952 34.921873 34.921873 0 0 1 3.290438 7.997926c14.638846 45.74189 13.83425 95.014395 2.293699 141.320703a327.35053 327.35053 0 0 1-11.072203 35.618389c-1.573166 4.203114-2.990215 9.607118-5.524093 12.885546-1.320979 1.717272-3.026242 3.002224-4.155078 4.911639-1.609192 2.750037-0.828614 2.101557-1.825352 4.095034a76.100382 76.100382 0 0 1-5.428022 9.102744c-6.761009 9.883322-14.69889 18.649817-22.816905 27.440331q-14.038401 15.323353-28.124837 30.586661-13.930321 15.083175-27.980731 30.022243c-8.622388 9.186806-17.028616 18.998075-26.071315 27.680508-5.22387 5.031728-12.068942 8.093997-17.184732 13.365903q-7.313418 7.541587-14.566793 15.155228-13.894294 14.566792-27.692517 29.217647c-9.36694 9.883322-18.865978 19.646556-28.232917 29.517869-9.607118 10.075465-18.577764 20.739366-27.920686 31.030991q-26.875912 29.613941-54.304233 58.711498-13.954339 14.927059-28.052784 29.84211l-13.077689 13.810232c-2.401779 2.521868-4.935657 4.959675-7.205339 7.601632s-5.067755 4.395256-7.769756 6.508822c-10.207563 7.997926-18.253524 18.986067-27.188144 28.377024-9.15078 9.607118-18.493702 19.046111-27.716534 28.581176-9.006673 9.330913-17.881248 18.781915-26.419574 28.569166-4.25115 4.887621-4.803559 12.177022 0 16.980581 4.383247 4.35923 12.74144 4.923648 17.016607-0.036027z" fill="#2CA6E0" p-id="5384"></path><path d="M142.11329 676.437163l-22.949003 42.739666-48.551971 90.426996-44.601045 83.065542c-5.692217 10.603856-11.840773 21.01557-16.44018 32.147818-9.487029 22.961012-15.755673 53.979993 0.21616 75.559981 17.31683 23.405341 47.050859 23.249225 73.458425 23.249225h865.84149c7.721721 0 15.299335 0.840623 23.045074 0 11.720684-1.284952 23.585474-4.14307 33.228619-11.252337 12.777467-9.414975 19.214236-23.657528 19.322315-39.437218 0.240178-23.825652-11.048185-46.342334-21.688068-66.961611q-20.859454-40.409939-42.031141-80.675772-33.781028-64.487778-67.94634-128.759396-5.343959-10.051447-10.699928-20.102894c-3.05026-5.716235-10.988141-7.493552-16.428171-4.311194a12.213048 12.213048 0 0 0-4.311194 16.428172q19.81468 37.143519 39.449227 74.383109 40.349895 76.364578 80.087336 153.053395c6.076502 11.75671 11.504524 22.084362 15.383397 34.177322a130.152428 130.152428 0 0 1 3.60267 14.530765c0.43232 2.209637-0.120089-1.861379 0.144106 0.972721 0.096071 1.032765 0.204151 2.053521 0.264196 3.086287a57.246413 57.246413 0 0 1 0.072053 5.752262c0 0.900667-0.120089 1.789326-0.180133 2.677984-0.168125 2.762046 0.468347-1.861379 0 0.072053-0.372276 1.549148-0.624463 3.122313-1.080801 4.659452-0.21616 0.720534-0.504374 1.429059-0.720534 2.149593-0.624463 2.125575 0.588436-1.020756 0.252187-0.55241-0.840623 1.20089-1.357005 2.714011-2.149592 3.962937-0.312231 0.492365-0.684507 0.948703-0.98473 1.441067-0.888658 1.537139 1.945441-2.113566 0.288214-0.396293-0.98473 1.008747-1.885397 2.077539-2.930171 3.026242-0.408303 0.372276-0.876649 0.696516-1.20089 1.092809-1.30897 1.344996 2.401779-1.597183 0.456338-0.360267-1.09281 0.672498-2.125575 1.429059-3.242402 2.07754s-2.257673 1.20089-3.410527 1.765308c-0.5404 0.264196-2.401779 0.792587-0.312231 0.156115 2.233655-0.684507-0.312231 0.096071-0.852632 0.288214a70.468209 70.468209 0 0 1-7.205338 2.089548q-1.669237 0.372276-3.350483 0.672498l-1.777317 0.288214c-2.401779 0.43232 3.146331-0.300222 0.684508-0.096072-2.137584 0.180133-4.25115 0.420311-6.388734 0.516383-4.803559 0.21616-9.438993-0.180133-14.194516-0.43232-6.2086-0.32424-12.52528 0-18.73388 0H68.318616a108.452351 108.452351 0 0 1-14.542774-0.816605c2.149593 0.300222-1.20089-0.240178-1.777317-0.360267q-1.561157-0.300222-3.098295-0.66049a70.372138 70.372138 0 0 1-7.037214-2.077539c-1.140845-0.396294-2.401779-1.044774-0.480356-0.144107-0.900667-0.43232-1.813343-0.840623-2.702002-1.308969-1.801335-0.948703-3.434545-2.077539-5.127799-3.182358 1.489103 0.960712 1.20089 1.008747 0 0-0.636472-0.576427-1.272943-1.20089-1.885397-1.753299s-1.20089-1.20089-1.717272-1.837361c-0.228169-0.252187-0.43232-0.588436-0.684507-0.816605-0.948703-0.852632 1.128836 1.909415 0.600444 0.75656-0.64848-1.405041-1.801335-2.702002-2.533877-4.095034a20.415125 20.415125 0 0 0-0.900667-1.837361c-0.816605-1.20089 0.780578 2.401779 0.408302 0.996738-0.10808-0.43232-0.336249-0.840623-0.480356-1.272943-0.492365-1.513121-0.972721-3.002224-1.332987-4.551372-0.156116-0.660489-0.276205-1.332988-0.420312-1.993477-0.588436-2.774055-0.084062-0.288214-0.084062-0.180133-0.120089-3.218384-0.468347-6.352707-0.348258-9.607118q0.084062-2.221646 0.300223-4.443292c0.072053-0.792587 0.204151-1.585174 0.264195-2.401779 0.10808-1.332988-0.228169 1.669237-0.204151 1.513121 0.10808-0.552409 0.168125-1.116827 0.264196-1.669237a121.518031 121.518031 0 0 1 4.167087-16.812456q1.128836-3.434545 2.40178-6.809045c0.336249-0.876649 0.708525-1.74129 1.044774-2.617939 0.804596-2.077539-1.20089 2.702002-0.55241 1.29696 0.192142-0.408303 0.348258-0.816605 0.528392-1.200889 1.20089-2.581913 2.401779-5.031728 3.794811-7.51757l32.78429-60.680958 49.932994-93.008909 38.164276-71.080662 5.836324-10.868052a12.261084 12.261084 0 0 0-4.311194-16.428172c-5.452039-3.194367-13.353894-1.429059-16.428172 4.311194zM669.580083 323.09938a101.967546 101.967546 0 0 1 18.241515 76.472658c-3.746776 22.408602-14.734917 43.23203-32.027729 58.099044a81.384297 81.384297 0 0 1-59.852344 19.442405c-21.616015-1.837361-41.562793-13.293849-55.64923-29.698003-17.460937-20.343072-24.822391-47.495189-22.660789-73.950789l-2.978206 5.187844 1.537139-0.852632-9.030691-5.187844c1.945441 24.257972-3.986954 48.419874-18.229506 68.306608a85.515357 85.515357 0 0 1-52.671023 34.29741c-21.399855 4.155078-43.66435-1.296961-61.437519-13.846258-18.229506-12.861529-30.778804-32.880361-36.134771-54.376287a102.36384 102.36384 0 0 1 16.524242-84.746788c1.921424-2.61794 0.444329-6.700965-2.149592-8.214085-3.038251-1.777317-6.292662-0.468347-8.214086 2.149592-32.928396 45.021356-26.779841 113.195865 16.260047 149.618851 18.853969 15.959824 43.376137 24.642257 68.150492 22.420611a95.698902 95.698902 0 0 0 63.47903-32.880361c19.670574-22.732842 28.821353-52.839148 26.419574-82.741302-0.360267-4.491328-4.803559-7.529579-9.03069-5.187843a11.912826 11.912826 0 0 0-2.750038 1.801334c-1.969459 1.969459-1.837361 4.803559-1.993477 7.40949a108.836636 108.836636 0 0 0-0.072053 11.672648 118.888083 118.888083 0 0 0 2.726019 20.283028 109.557169 109.557169 0 0 0 14.746926 35.294149c13.570054 20.991552 34.597633 37.227581 59.095784 43.027878a92.336411 92.336411 0 0 0 72.221507-12.993627c21.351819-14.26657 36.579101-36.507048 43.159977-61.245375 8.622388-32.424023 2.557895-68.450714-17.31683-95.626849-1.909415-2.61794-5.211861-3.9149-8.214085-2.149593-2.581913 1.513121-4.083025 5.584137-2.149593 8.214086z" fill="#2CA6E0" p-id="5385"></path></svg>