<?xml version="1.0" standalone="no"?><!DOCTYPE svg PUBLIC "-//W3C//DTD SVG 1.1//EN" "http://www.w3.org/Graphics/SVG/1.1/DTD/svg11.dtd"><svg t="1715838210203" class="icon" viewBox="0 0 1024 1024" version="1.1" xmlns="http://www.w3.org/2000/svg" p-id="6601" xmlns:xlink="http://www.w3.org/1999/xlink" width="200" height="200"><path d="M511.33 934.53H155.4c-35.34 0-63.99-28.65-63.99-63.99V504.65h419.92v429.88z" fill="#494B5A" p-id="6602"></path><path d="M869.49 934.53H511.33V504.65h419.92v368.11c0 34.11-27.65 61.77-61.76 61.77z" fill="#FFBE2C" p-id="6603"></path><path d="M495.51 504.65H90.73V152.44c0-29.03 23.53-52.56 52.56-52.56h352.22v404.77z" fill="#33ABE0" p-id="6604"></path><path d="M931.25 502.21H511.33V99.88h370.7c27.18 0 49.22 22.04 49.22 49.22v353.11z" fill="#B0C34C" p-id="6605"></path><path d="M211.04 801.74c2.83 2.83 6.54 4.25 10.25 4.25s7.43-1.42 10.25-4.25l62.26-62.26 62.26 62.26c2.83 2.83 6.54 4.25 10.25 4.25s7.43-1.42 10.25-4.25c5.67-5.67 5.67-14.84 0-20.51l-62.26-62.26 62.26-62.26c5.67-5.67 5.67-14.84 0-20.51s-14.84-5.67-20.51 0l-62.26 62.26-62.26-62.26c-5.67-5.67-14.84-5.67-20.51 0-5.67 5.67-5.67 14.84 0 20.51l62.26 62.26-62.26 62.26c-5.65 5.68-5.65 14.84 0.02 20.51zM641.85 776.99h174.03c8.01 0 14.5-6.5 14.5-14.5s-6.5-14.5-14.5-14.5H641.85c-8.01 0-14.5 6.5-14.5 14.5s6.5 14.5 14.5 14.5zM641.85 689.98h174.03c8.01 0 14.5-6.5 14.5-14.5s-6.5-14.5-14.5-14.5H641.85c-8.01 0-14.5 6.5-14.5 14.5s6.5 14.5 14.5 14.5zM641.85 283.91c-8.01 0-14.5 6.5-14.5 14.5s6.5 14.5 14.5 14.5h174.03c8.01 0 14.5-6.5 14.5-14.5s-6.5-14.5-14.5-14.5H641.85zM293.8 399.93c8.01 0 14.5-6.5 14.5-14.5v-72.51h72.51c8.01 0 14.5-6.5 14.5-14.5s-6.5-14.5-14.5-14.5H308.3V211.4c0-8.01-6.5-14.5-14.5-14.5s-14.5 6.5-14.5 14.5v72.51h-72.51c-8.01 0-14.5 6.5-14.5 14.5s6.5 14.5 14.5 14.5h72.51v72.51c0 8.02 6.5 14.51 14.5 14.51z" p-id="6606"></path><path d="M946.4 153.39V878.5c0 37.27-35.24 72.51-72.51 72.51H148.78c-37.27 0-72.51-35.24-72.51-72.51V153.39c0-37.27 35.24-72.51 72.51-72.51h290.04c8.01 0 14.5 6.5 14.5 14.5s-6.5 14.5-14.5 14.5H148.78c-21.14 0-43.51 22.36-43.51 43.51V878.5c0 21.14 22.36 43.51 43.51 43.51h725.11c21.14 0 43.51-22.36 43.51-43.51V153.39c0-21.14-22.36-43.51-43.51-43.51H525.84v377.06h348.05c8.01 0 14.5 6.5 14.5 14.5s-6.5 14.5-14.5 14.5H525.84V878.5c0 8.01-6.5 14.5-14.5 14.5s-14.5-6.5-14.5-14.5V515.95H148.78c-8.01 0-14.5-6.5-14.5-14.5s6.5-14.5 14.5-14.5h348.05V95.39c0-8.01 6.5-14.5 14.5-14.5h362.56c37.27-0.01 72.51 35.23 72.51 72.5z" p-id="6607"></path></svg>