<?xml version="1.0" standalone="no"?><!DOCTYPE svg PUBLIC "-//W3C//DTD SVG 1.1//EN" "http://www.w3.org/Graphics/SVG/1.1/DTD/svg11.dtd"><svg t="1715913336663" class="icon" viewBox="0 0 1092 1024" version="1.1" xmlns="http://www.w3.org/2000/svg" p-id="4278" xmlns:xlink="http://www.w3.org/1999/xlink" width="213.28125" height="200"><path d="M530.981547 1024c-33.450667 0-60.757333-32.3584-60.757334-71.8848V71.8848c0-39.594667 27.306667-71.8848 60.757334-71.8848 33.3824 0 60.689067 32.3584 60.689066 71.8848v880.2304c0 39.594667-27.306667 71.8848-60.757333 71.8848z m485.376-325.495467A61.6448 61.6448 0 0 1 955.736747 636.245333V387.072c0-34.133333 27.306667-62.190933 60.689066-62.190933s60.689067 27.989333 60.689067 62.2592V636.245333c0 34.269867-27.306667 62.2592-60.757333 62.2592z m-955.733334 0A61.6448 61.6448 0 0 1 0.003413 636.245333V387.072c0-34.133333 27.306667-62.190933 60.689067-62.190933s60.689067 27.989333 60.689067 62.2592V636.245333c0 34.269867-27.306667 62.2592-60.757334 62.2592z m713.045334 128.341334a61.6448 61.6448 0 0 1-60.689067-62.327467V258.8672c0-34.269867 27.306667-62.327467 60.757333-62.327467 33.314133 0 60.6208 27.989333 60.6208 62.327467v506.2656a61.44 61.44 0 0 1-60.689066 61.713067z m-477.866667 0a61.6448 61.6448 0 0 1-60.689067-62.327467V258.8672c0-34.269867 27.306667-62.327467 60.757334-62.327467 33.314133 0 60.6208 27.989333 60.6208 62.327467v506.2656a61.44 61.44 0 0 1-60.689067 61.713067z" p-id="4279"></path></svg>