<?xml version="1.0" standalone="no"?><!DOCTYPE svg PUBLIC "-//W3C//DTD SVG 1.1//EN" "http://www.w3.org/Graphics/SVG/1.1/DTD/svg11.dtd"><svg t="1715913534567" class="icon" viewBox="0 0 1024 1024" version="1.1" xmlns="http://www.w3.org/2000/svg" p-id="6388" xmlns:xlink="http://www.w3.org/1999/xlink" width="200" height="200"><path d="M941.568 156.16H508.928L484.352 24.064H82.432C37.888 24.064 2.048 59.904 2.048 104.448v683.008c0 44.544 35.84 80.384 80.384 80.384h366.08l-29.696 132.608h522.24c44.544 0 80.384-35.84 80.384-80.384V236.544c0.512-44.032-35.328-80.384-79.872-80.384zM160.768 571.392c0 17.92-14.848 32.768-32.768 32.768s-32.768-14.336-32.768-32.768V350.208c0-17.92 14.336-32.768 32.768-32.768 9.216 0 16.896 3.584 23.04 9.728 5.632 6.144 9.728 13.824 9.728 23.04v221.184z m138.24 101.376c0 17.92-14.848 32.768-32.768 32.768s-32.768-14.848-32.768-32.768V249.344c0-17.92 14.336-32.768 32.768-32.768 9.216 0 16.896 3.584 23.04 9.728 5.632 5.632 9.728 14.336 9.728 23.04v423.424z m138.24-101.376c0 17.92-14.848 32.768-32.768 32.768s-32.768-14.336-32.768-32.768V350.208c0-17.92 14.336-32.768 32.768-32.768 9.216 0 16.896 3.584 23.04 9.728 5.632 6.144 9.728 13.824 9.728 23.04v221.184z m545.28 347.648h-0.512c0 22.016-17.92 39.936-40.448 39.936H470.016l19.968-92.16h151.04l-86.016-479.744-0.512 2.56-3.584-18.944 1.024 0.512-31.232-175.104H942.08c22.016 0 39.936 17.92 39.936 40.448l0.512 682.496z" fill="#7dc5eb" p-id="6389"></path><path d="M691.712 735.232h102.912l35.84-244.224h108.032l20.48-80.384H629.76l-15.36 80.384h113.152z" fill="#7dc5eb" p-id="6390"></path></svg>