<svg xmlns="http://www.w3.org/2000/svg" width="24" height="24" fill="none" viewBox="0 0 24 24"><mask id="chatlist-bot-icon_svg__a" fill="#fff"><path d="M12 19.953a.55.55 0 0 1-.383-.148.7.7 0 0 1-.21-.39 28 28 0 0 0-.368-2.126 7.5 7.5 0 0 0-.469-1.516 3.3 3.3 0 0 0-.695-1.039 3.3 3.3 0 0 0-1.031-.68 7.4 7.4 0 0 0-1.5-.452 28 28 0 0 0-2.078-.352.6.6 0 0 1-.399-.187.57.57 0 0 1-.156-.399q0-.234.156-.398a.6.6 0 0 1 .406-.196q1.438-.156 2.422-.375.993-.219 1.625-.601.64-.383 1.032-1.031.39-.65.625-1.657t.43-2.492a.7.7 0 0 1 .202-.39.56.56 0 0 1 .391-.149q.227 0 .39.148.165.15.204.391.195 1.477.43 2.484.241 1.008.632 1.657.39.649 1.024 1.03.64.384 1.625.602.991.22 2.422.383.25.024.406.196.156.164.156.398a.56.56 0 0 1-.164.399.6.6 0 0 1-.398.187q-1.438.165-2.422.383-.985.21-1.625.601-.64.384-1.032 1.032-.39.648-.632 1.656-.235 1.008-.422 2.484a.65.65 0 0 1-.203.399.56.56 0 0 1-.391.148"></path></mask><path fill="#000" d="m11.406 19.414-1.188.166.004.031.006.031zm-.367-2.125-1.174.247.002.01zm-.469-1.516-1.1.481.006.012zm-.695-1.039-.849.849.008.008zm-1.031-.68-.486 1.098.011.005zm-1.5-.452-.252 1.173.012.002zm-2.078-.352.162-1.189-.023-.003-.024-.002zm-.399-.187-.888.807.01.01.01.01zm0-.797.87.827.009-.01.01-.01zm.406-.196.112 1.195h.01l.008-.002zm2.422-.375-.258-1.171h-.002zm1.625-.601-.615-1.03-.006.003zm1.032-1.031-1.028-.62zm1.054-4.149-1.178-.228-.007.036-.005.036zm.203-.39-.805-.89-.01.01-.011.01zm.985.39 1.19-.157-.003-.017-.003-.017zm.43 2.484-1.17.272.003.009zm.632 1.657 1.028-.62zm1.024 1.03-.621 1.028.005.003zm1.625.602-.26 1.172h.001zm2.422.383-.137 1.192.012.002.013.001zm.406.196-.888.807.01.01.009.01zm-.008.797-.868-.83-.001.002zm-.398.187-.116-1.194h-.01l-.01.002zm-2.422.383.251 1.173.009-.002zm-1.625.601.615 1.03.01-.005zm-1.664 2.688-1.167-.28-.002.008zm-.422 2.484 1.185.186.003-.017.002-.018zM12 18.753a.64.64 0 0 1 .422.162l-1.61 1.78c.327.296.74.458 1.188.458zm.422.162a.6.6 0 0 1 .116.148.4.4 0 0 1 .046.123l-2.356.456c.075.386.26.76.584 1.053zm.173.334a30 30 0 0 0-.384-2.217l-2.344.514q.183.831.35 2.034zm-.382-2.207a8.7 8.7 0 0 0-.548-1.761l-2.189.985c.143.317.276.735.389 1.27zm-.543-1.75a4.5 4.5 0 0 0-.954-1.414l-1.682 1.713c.157.153.307.366.437.663zm-.947-1.406a4.5 4.5 0 0 0-1.405-.934l-.949 2.205c.293.126.504.272.657.426zm-1.393-.928a8.5 8.5 0 0 0-1.747-.532l-.479 2.351c.53.108.943.237 1.254.375zm-1.735-.53a30 30 0 0 0-2.167-.367l-.325 2.378q1.172.16 1.99.336zm-2.214-.372a.609.609 0 0 1 .355.18l-1.738 1.654c.319.334.727.513 1.152.554zm.374.2a.624.624 0 0 1 .156.409h-2.4c0 .457.169.875.468 1.205zm.156.408a.644.644 0 0 1-.175.43l-1.738-1.656c-.324.34-.487.773-.487 1.226zm-.156.409a.62.62 0 0 1-.37.192l-.224-2.39c-.438.042-.86.229-1.182.583zm-.352.19c.985-.107 1.84-.238 2.553-.396l-.521-2.343c-.6.133-1.36.252-2.291.353zm2.55-.396c.746-.164 1.421-.403 1.988-.747L8.7 10.067c-.276.167-.684.33-1.262.457zm1.983-.743a4.16 4.16 0 0 0 1.444-1.442L9.324 9.443c-.16.266-.364.468-.62.62zm1.444-1.442c.344-.572.59-1.251.765-2.004l-2.337-.544c-.138.591-.308 1.016-.484 1.31zm.765-2.004c.168-.723.318-1.595.451-2.607l-2.38-.313a25 25 0 0 1-.408 2.376zm.44-2.536a.4.4 0 0 1-.04.107.6.6 0 0 1-.11.144l-1.652-1.74c-.31.296-.483.663-.555 1.033zm-.17.271a.64.64 0 0 1-.415.162v-2.4c-.44 0-.86.155-1.196.459zM12 6.575a.635.635 0 0 1-.415-.162l1.61-1.78A1.76 1.76 0 0 0 12 4.176zm-.415-.162a.6.6 0 0 1-.126-.164.5.5 0 0 1-.05-.144l2.37-.382a1.85 1.85 0 0 0-.583-1.09zm-.18-.342q.198 1.514.45 2.6l2.337-.544a26 26 0 0 1-.409-2.37zm.452 2.608c.18.75.43 1.427.771 1.995l2.056-1.239c-.178-.296-.351-.724-.494-1.317zm.771 1.995c.359.595.838 1.08 1.43 1.439l1.243-2.054a1.8 1.8 0 0 1-.617-.624zm1.436 1.442c.568.34 1.24.578 1.98.743l.521-2.343c-.572-.127-.984-.29-1.27-.46zm1.982.743q1.074.236 2.544.403l.273-2.384a23 23 0 0 1-2.3-.362zm2.569.406a.619.619 0 0 1-.37-.192l1.776-1.615a1.8 1.8 0 0 0-1.182-.582zm-.351-.172a.64.64 0 0 1-.175-.429h2.4c0-.453-.163-.885-.487-1.226zm-.175-.429a.65.65 0 0 1 .168-.43l1.736 1.657c.311-.326.496-.751.496-1.227zm.167-.43a.6.6 0 0 1 .355-.178l.231 2.388c.426-.04.834-.22 1.152-.554zm.334-.176c-.983.112-1.835.245-2.546.403l.521 2.343a23 23 0 0 1 2.298-.362zm-2.537.401c-.746.16-1.424.4-1.998.75l1.25 2.05c.28-.17.685-.331 1.251-.453zm-1.989.745a4.16 4.16 0 0 0-1.444 1.442l2.056 1.239c.16-.266.364-.468.62-.62zm-1.444 1.442c-.342.569-.59 1.245-.771 1.995l2.333.561c.143-.593.316-1.02.494-1.317zm-.773 2.004a26 26 0 0 0-.444 2.605l2.381.302c.122-.96.256-1.744.4-2.363zm-.439 2.571a.5.5 0 0 1 .046-.135.6.6 0 0 1 .131-.171l1.61 1.78c.343-.31.522-.706.584-1.104zm.178-.306a.64.64 0 0 1 .414-.162v2.4c.44 0 .86-.155 1.196-.458z" mask="url(#chatlist-bot-icon_svg__a)"></path></svg> 