<?xml version="1.0" standalone="no"?><!DOCTYPE svg PUBLIC "-//W3C//DTD SVG 1.1//EN" "http://www.w3.org/Graphics/SVG/1.1/DTD/svg11.dtd"><svg t="1715421238756" class="icon" viewBox="0 0 1024 1024" version="1.1" xmlns="http://www.w3.org/2000/svg" p-id="11581" xmlns:xlink="http://www.w3.org/1999/xlink" width="200" height="200"><path d="M139.636364 704h744.727272v186.181818H139.636364z" fill="#CCDFFF" p-id="11582"></path><path d="M901.818182 686.545455h-779.636364v221.090909h779.636364V686.545455z m-34.909091 34.90909v151.272728h-709.818182V721.454545h709.818182z" fill="#005FFF" p-id="11583"></path><path d="M843.636364 610.909091m46.545454 0l69.818182 0q46.545455 0 46.545455 46.545454l0 279.272728q0 46.545455-46.545455 46.545454l-69.818182 0q-46.545455 0-46.545454-46.545454l0-279.272728q0-46.545455 46.545454-46.545454Z" fill="#CCDFFF" p-id="11584"></path><path d="M960 593.454545h-69.818182A64 64 0 0 0 826.181818 657.454545v279.272728A64 64 0 0 0 890.181818 1000.727273h69.818182a64 64 0 0 0 64-64v-279.272728A64 64 0 0 0 960 593.454545z m0 34.909091A29.090909 29.090909 0 0 1 989.090909 657.454545v279.272728a29.090909 29.090909 0 0 1-29.090909 29.090909h-69.818182A29.090909 29.090909 0 0 1 861.090909 936.727273v-279.272728A29.090909 29.090909 0 0 1 890.181818 628.363636h69.818182z" fill="#005FFF" p-id="11585"></path><path d="M994.909091 855.272727l23.272727 23.272728-104.727273 116.363636-23.272727-23.272727 104.727273-116.363637z m0-93.090909l23.272727 23.272727-162.909091 174.545455-23.272727-23.272727 162.909091-174.545455z m0-104.727273l23.272727 23.272728-162.909091 174.545454-23.272727-23.272727 162.909091-174.545455z m-46.545455-58.181818l23.272728 23.272728-116.363637 128-23.272727-23.272728 116.363636-128z" fill="#005FFF" p-id="11586"></path><path d="M17.454545 610.909091m46.545455 0l69.818182 0q46.545455 0 46.545454 46.545454l0 279.272728q0 46.545455-46.545454 46.545454l-69.818182 0q-46.545455 0-46.545455-46.545454l0-279.272728q0-46.545455 46.545455-46.545454Z" fill="#CCDFFF" p-id="11587"></path><path d="M133.818182 593.454545h-69.818182A64 64 0 0 0 0 657.454545v279.272728A64 64 0 0 0 64 1000.727273h69.818182a64 64 0 0 0 64-64v-279.272728A64 64 0 0 0 133.818182 593.454545z m0 34.909091A29.090909 29.090909 0 0 1 162.909091 657.454545v279.272728a29.090909 29.090909 0 0 1-29.090909 29.090909h-69.818182A29.090909 29.090909 0 0 1 34.909091 936.727273v-279.272728A29.090909 29.090909 0 0 1 64 628.363636h69.818182z" fill="#005FFF" p-id="11588"></path><path d="M168.727273 855.272727l23.272727 23.272728-104.727273 116.363636-23.272727-23.272727 104.727273-116.363637z m0-93.090909l23.272727 23.272727-162.909091 174.545455-23.272727-23.272727 162.909091-174.545455z m0-104.727273l23.272727 23.272728-162.909091 174.545454-23.272727-23.272727 162.909091-174.545455z m-46.545455-58.181818l23.272727 23.272728-116.363636 128-23.272727-23.272728 116.363636-128z" fill="#005FFF" p-id="11589"></path><path d="M802.909091 29.090909a34.909091 34.909091 0 0 1 34.909091 34.909091v395.636364a34.909091 34.909091 0 0 1-34.909091 34.909091H221.090909a34.909091 34.909091 0 0 1-34.909091-34.909091v-395.636364a34.909091 34.909091 0 0 1 34.909091-34.909091h581.818182z m-93.090909 93.090909H302.545455a23.272727 23.272727 0 0 0-23.272728 23.272727v232.727273a23.272727 23.272727 0 0 0 23.272728 23.272727h407.272727a23.272727 23.272727 0 0 0 23.272727-23.272727v-232.727273a23.272727 23.272727 0 0 0-23.272727-23.272727z" fill="#CCDFFF" p-id="11590"></path><path d="M279.272727 122.181818m23.272728 0l407.272727 0q23.272727 0 23.272727 23.272727l0 232.727273q0 23.272727-23.272727 23.272727l-407.272727 0q-23.272727 0-23.272728-23.272727l0-232.727273q0-23.272727 23.272728-23.272727Z" fill="#FFFFFF" p-id="11591"></path><path d="M698.181818 104.727273H325.818182a64 64 0 0 0-64 64v186.181818A64 64 0 0 0 325.818182 418.909091h372.363636a64 64 0 0 0 64-64v-186.181818A64 64 0 0 0 698.181818 104.727273z m0 34.909091a29.090909 29.090909 0 0 1 29.090909 29.090909v186.181818A29.090909 29.090909 0 0 1 698.181818 384H325.818182a29.090909 29.090909 0 0 1-29.090909-29.090909v-186.181818A29.090909 29.090909 0 0 1 325.818182 139.636364h372.363636z" fill="#005FFF" p-id="11592"></path><path d="M768 11.636364H256a87.272727 87.272727 0 0 0-87.272727 87.272727v325.818182A87.272727 87.272727 0 0 0 256 512h512a87.272727 87.272727 0 0 0 87.272727-87.272727v-325.818182A87.272727 87.272727 0 0 0 768 11.636364z m0 34.909091a52.363636 52.363636 0 0 1 52.363636 52.363636v325.818182A52.363636 52.363636 0 0 1 768 477.090909H256a52.363636 52.363636 0 0 1-52.363636-52.363636v-325.818182A52.363636 52.363636 0 0 1 256 46.545455h512z" fill="#005FFF" p-id="11593"></path><path d="M253.661091 594.746182L311.272727 494.545455h401.454546l57.611636 100.200727A69.818182 69.818182 0 0 1 779.636364 629.550545V925.090909a34.909091 34.909091 0 0 1-34.909091 34.909091H279.272727a34.909091 34.909091 0 0 1-34.909091-34.909091V629.550545a69.818182 69.818182 0 0 1 9.297455-34.792727z" fill="#CCDFFF" p-id="11594"></path><path d="M722.827636 477.090909H301.172364l-62.650182 108.951273a87.272727 87.272727 0 0 0-11.613091 43.508363V890.181818A87.272727 87.272727 0 0 0 314.181818 977.454545h395.636364a87.272727 87.272727 0 0 0 87.272727-87.272727V629.550545a87.272727 87.272727 0 0 0-11.613091-43.508363L722.827636 477.090909z m-20.200727 34.909091l52.596364 91.450182a52.363636 52.363636 0 0 1 6.958545 26.100363V890.181818A52.363636 52.363636 0 0 1 709.818182 942.545455H314.181818a52.363636 52.363636 0 0 1-52.363636-52.363637V629.550545l0.093091-3.048727a52.363636 52.363636 0 0 1 6.865454-23.051636L321.373091 512h381.265454z" fill="#005FFF" p-id="11595"></path><path d="M837.818182 168.727273h34.909091a34.909091 34.909091 0 0 1 34.909091 34.909091v116.363636a34.909091 34.909091 0 0 1-34.909091 34.909091h-34.909091v-186.181818z" fill="#FFC700" p-id="11596"></path><path d="M872.727273 151.272727h-52.363637v221.090909H872.727273a52.363636 52.363636 0 0 0 52.363636-52.363636v-116.363636A52.363636 52.363636 0 0 0 872.727273 151.272727z m-17.454546 186.181818V186.181818H872.727273a17.454545 17.454545 0 0 1 17.454545 17.454546v116.363636A17.454545 17.454545 0 0 1 872.727273 337.454545h-17.454546z" fill="#005FFF" p-id="11597"></path><path d="M186.181818 168.727273h-34.909091a34.909091 34.909091 0 0 0-34.909091 34.909091v116.363636a34.909091 34.909091 0 0 0 34.909091 34.909091h34.909091v-186.181818z" fill="#FFC700" p-id="11598"></path><path d="M151.272727 151.272727h52.363637v221.090909H151.272727a52.363636 52.363636 0 0 1-52.363636-52.363636v-116.363636A52.363636 52.363636 0 0 1 151.272727 151.272727z m17.454546 186.181818V186.181818H151.272727a17.454545 17.454545 0 0 0-17.454545 17.454546v116.363636A17.454545 17.454545 0 0 0 151.272727 337.454545h17.454546z" fill="#005FFF" p-id="11599"></path><path d="M413.090909 256m-40.727273 0a40.727273 40.727273 0 1 0 81.454546 0 40.727273 40.727273 0 1 0-81.454546 0Z" fill="#CCDFFF" p-id="11600"></path><path d="M413.090909 197.818182a58.181818 58.181818 0 1 0 0 116.363636 58.181818 58.181818 0 0 0 0-116.363636z m0 34.909091a23.272727 23.272727 0 1 1 0 46.545454 23.272727 23.272727 0 0 1 0-46.545454z" fill="#005FFF" p-id="11601"></path><path d="M610.909091 256m-40.727273 0a40.727273 40.727273 0 1 0 81.454546 0 40.727273 40.727273 0 1 0-81.454546 0Z" fill="#CCDFFF" p-id="11602"></path><path d="M610.909091 197.818182a58.181818 58.181818 0 1 0 0 116.363636 58.181818 58.181818 0 0 0 0-116.363636z m0 34.909091a23.272727 23.272727 0 1 1 0 46.545454 23.272727 23.272727 0 0 1 0-46.545454z" fill="#005FFF" p-id="11603"></path><path d="M418.909091 843.636364h186.181818a46.545455 46.545455 0 0 1 46.545455 46.545454v69.818182H372.363636v-69.818182a46.545455 46.545455 0 0 1 46.545455-46.545454z" fill="#FFC700" p-id="11604"></path><path d="M605.090909 826.181818H418.909091a64 64 0 0 0-64 64V977.454545h314.181818v-87.272727A64 64 0 0 0 605.090909 826.181818z m0 34.909091l1.908364 0.058182A29.090909 29.090909 0 0 1 634.181818 890.181818V942.545455h-244.363636v-52.363637A29.090909 29.090909 0 0 1 418.909091 861.090909h186.181818z" fill="#005FFF" p-id="11605"></path><path d="M337.454545 645.818182a23.272727 23.272727 0 1 0 0-46.545455 23.272727 23.272727 0 0 0 0 46.545455z m81.454546 0a23.272727 23.272727 0 1 0 0-46.545455 23.272727 23.272727 0 0 0 0 46.545455z m81.454545 0a23.272727 23.272727 0 1 0 0-46.545455 23.272727 23.272727 0 0 0 0 46.545455z" fill="#005FFF" p-id="11606"></path></svg>