<?xml version="1.0" standalone="no"?><!DOCTYPE svg PUBLIC "-//W3C//DTD SVG 1.1//EN" "http://www.w3.org/Graphics/SVG/1.1/DTD/svg11.dtd"><svg t="1715421544948" class="icon" viewBox="0 0 1210 1024" version="1.1" xmlns="http://www.w3.org/2000/svg" p-id="12644" xmlns:xlink="http://www.w3.org/1999/xlink" width="236.328125" height="200"><path d="M186.181818 0h837.818182a186.181818 186.181818 0 0 1 186.181818 186.181818v651.636364a186.181818 186.181818 0 0 1-186.181818 186.181818H186.181818a186.181818 186.181818 0 0 1-186.181818-186.181818V186.181818a186.181818 186.181818 0 0 1 186.181818-186.181818z m100.398546 719.592727c4.328727-0.418909 6.423273-3.025455 6.004363-7.261091-0.698182-5.632-2.653091-10.705455-3.258182-16.477091-3.444364-31.650909 28.718545-102.493091 42.542546-132.142545C393.681455 429.614545 393.774545 430.917818 392.285091 417.186909c-0.837818-7.121455-13.172364-31.557818-25.739636-30.301091-13.405091 1.396364-64.465455 38.818909-79.26691 49.524364-10.938182 7.819636-20.014545 13.172364-19.456 26.903273-0.139636 2.885818-0.279273 10.984727 5.02691 10.426181 1.954909-0.279273 10.658909-4.933818 12.474181-6.190545l43.892364-21.829818 1.117091 0.837818a1441.512727 1441.512727 0 0 0-74.24 135.168c-10.658909 22.621091-25.6 77.265455-23.086546 100.957091 2.653091 24.576 23.738182 25.646545 43.194182 33.605818a24.669091 24.669091 0 0 0 10.379637 3.304727z m416.674909-279.458909c-2.094545-18.944-7.121455-42.263273-29.509818-46.685091 3.072-3.723636 14.522182-4.933818 13.963636-10.146909-1.117091-10.426182-27.229091-30.580364-46.964364-28.532363-31.325091 3.258182-100.957091 48.034909-138.286545 98.39709-31.325091 42.496-59.578182 104.820364-53.713455 158.161455 4.514909 40.215273 35.095273 80.430545 79.127273 72.471273 115.106909-20.200727 185.297455-152.855273 175.383273-243.665455z m-85.178182 121.018182l-42.496 47.569455c-9.914182 11.124364-38.865455 32.395636-53.248 33.88509-13.451636 1.396364-18.478545-25.786182-18.897455-34.816-2.513455-49.012364 28.253091-120.226909 109.614546-177.152 0.279273 2.885818 1.861818 8.378182 5.725091 7.959273 4.794182-0.558545 15.36-19.316364 27.973818-20.712727 13.451636-1.396364 20.293818 16.058182 21.410909 25.925818 3.351273 31.278545-31.464727 91.927273-50.082909 117.294546z m357.282909-149.876364c-2.094545-18.897455-7.121455-42.216727-29.509818-46.638545 3.072-3.723636 14.522182-4.933818 13.963636-10.146909-1.117091-10.426182-27.229091-30.580364-46.964363-28.532364-31.325091 3.258182-100.957091 48.034909-138.286546 98.397091-31.325091 42.496-59.578182 104.820364-53.713454 158.161455 4.514909 40.215273 35.095273 80.430545 79.127272 72.471272 115.246545-20.200727 185.437091-152.855273 175.383273-243.665454z m-85.178182 121.018182l-42.496 47.616c-9.914182 11.124364-38.865455 32.395636-53.248 33.885091-13.451636 1.396364-18.478545-25.786182-18.897454-34.816-2.513455-49.012364 28.253091-120.226909 109.614545-177.152 0.279273 2.885818 1.954909 8.378182 5.725091 7.959273 4.794182-0.558545 15.36-19.316364 27.973818-20.712727 13.451636-1.396364 20.293818 16.058182 21.410909 25.925818 3.351273 31.278545-31.325091 91.787636-50.082909 117.294545z m-79.546182 171.287273c19.037091-3.072 54.132364-7.447273 54.132364-7.447273-364.544 21.829818-621.149091 129.117091-616.680727 127.069091 0 0-14.382545 9.169455 0 15.592727 7.307636 3.304727 49.524364-15.639273 49.524363-15.639272 289.559273-100.817455 623.476364-127.069091 623.476364-127.069091-39.563636 1.536-110.452364 7.447273-110.452364 7.447272z m110.452364 20.945454c-400.430545 23.877818-616.634182 127.069091-616.634182 127.069091s-14.429091 9.169455 0 15.639273c7.261091 3.258182 49.524364-15.639273 49.524364-15.639273 300.032-104.587636 301.288727-101.841455 623.476363-127.069091-39.563636 1.536-110.312727 7.447273-110.312727 7.447273 18.850909-2.932364 53.992727-7.447273 53.992727-7.447273zM232.727273 186.181818h526.941091a23.272727 23.272727 0 1 0 0-46.545454H232.727273a23.272727 23.272727 0 0 0 0 46.545454z m0 93.090909h263.447272a23.272727 23.272727 0 1 0 0-46.545454H232.727273a23.272727 23.272727 0 0 0 0 46.545454z" fill="#409EFF" p-id="12645"></path></svg>