<?xml version="1.0" standalone="no"?><!DOCTYPE svg PUBLIC "-//W3C//DTD SVG 1.1//EN" "http://www.w3.org/Graphics/SVG/1.1/DTD/svg11.dtd"><svg t="1715679150788" class="icon" viewBox="0 0 1024 1024" version="1.1" xmlns="http://www.w3.org/2000/svg" p-id="10236" xmlns:xlink="http://www.w3.org/1999/xlink" width="200" height="200"><path d="M744.96 466.176a40.64 40.64 0 0 0-11.392-27.968L556.416 260.992a39.232 39.232 0 0 0-55.552 0L153.6 607.872c-30.336 30.336-59.52 84.736-68.16 126.848l-19.648 96.448a82.816 82.816 0 0 0 97.28 97.664l96.448-19.712c41.728-8.64 96.448-37.76 126.72-68.096l347.328-347.264a38.08 38.08 0 0 0 11.456-27.584z m-414.208 318.912c-19.264 19.328-59.84 41.344-86.592 46.848l-96.512 19.712c-1.92 0.384-3.904-0.768-4.672-4.736l19.648-96.448c5.504-26.752 27.2-67.328 46.464-86.656l319.36-319.36 121.28 121.344-318.976 319.36zM759.616 412.16a38.656 38.656 0 0 0 27.968 11.456 40.32 40.32 0 0 0 27.968-11.456l85.44-85.056a102.912 102.912 0 0 0 0-144.896l-88.64-88.576a102.4 102.4 0 0 0-144.512 0.384L582.4 179.456a38.976 38.976 0 0 0-11.392 27.968c0 10.624 4.352 20.48 11.392 27.968L759.68 412.16z m-35.84-262.208a22.4 22.4 0 0 1 16.512-7.04c6.336-0.064 12.224 2.304 16.96 7.04l87.808 87.808a24 24 0 0 1 0 33.472l-57.472 57.472-121.28-121.28 57.472-57.472zM778.432 861.568H676.48a63.36 63.36 0 0 1-57.92-88.96 29.44 29.44 0 0 0-14.976-39.04 29.44 29.44 0 0 0-38.976 14.976 122.56 122.56 0 0 0 111.808 172.096h102.016v35.456l86.656-65.024-86.656-64.96v35.456zM837.632 675.712h-102.72v-36.224l-86.656 64.96 86.656 65.024v-34.688h102.72a63.36 63.36 0 0 1 63.36 63.36c0 9.088-1.92 18.176-5.44 26.432a29.248 29.248 0 0 0 14.528 38.976 29.12 29.12 0 0 0 39.04-14.592 122.624 122.624 0 0 0-111.424-173.248z" p-id="10237"></path></svg>